<svg xmlns="http://www.w3.org/2000/svg" viewBox="0 0 40 40"><path d="M31.52,28.59l-1.4-1c-2.82-2.05-5.4-3.78-7.68-5.14l-.51-.34,3.32-7.5Zm2,5,2.17-2.17L26.94,11.86H23.67l-3.94,9.05-.44-.22A13.48,13.48,0,0,0,13.76,19a3.08,3.08,0,0,0-2.88,1.54c-1,1.74-.41,4.15,1.69,7.39.77,1.19,1.6,2.3,2.19,3.05h3.16L19.21,28l-1.36-3.08-1.59,3.49-.53-.7c-.36-.47-.69-.95-1-1.4-1.72-2.64-2-4-1.6-4.48s2.53.14,4.9,1.31A25.74,25.74,0,0,1,22,25.37c.94.58,2,1.23,3,1.93C28.79,29.88,32.24,32.57,33.51,33.57ZM41.42,24A17.42,17.42,0,1,1,24,6.56,17.44,17.44,0,0,1,41.42,24ZM44,24A20,20,0,1,0,24,44,20,20,0,0,0,44,24Z" transform="translate(-4 -4)" fill="#25d0e7" fill-rule="evenodd"/></svg>